<?xml version="1.0" standalone="no"?>
<!DOCTYPE svg PUBLIC "-//W3C//DTD SVG 20010904//EN"
 "http://www.w3.org/TR/2001/REC-SVG-20010904/DTD/svg10.dtd">
<svg version="1.0" xmlns="http://www.w3.org/2000/svg"
 width="109.000000pt" height="72.000000pt" viewBox="0 0 109.000000 72.000000"
 preserveAspectRatio="xMidYMid meet">

<g transform="translate(0.000000,72.000000) scale(0.100000,-0.100000)"
fill="#000000" stroke="none">
<path d="M457 298 c-29 -93 -36 -106 -36 -75 -1 57 -16 77 -56 77 -31 0 -35 3
-35 26 0 19 -4 25 -17 22 -15 -3 -18 -15 -18 -83 0 -67 3 -80 17 -83 13 -3 17
6 20 40 2 31 8 44 21 46 14 3 17 -4 17 -35 1 -57 18 -73 79 -73 32 0 50 4 46
10 -3 5 -15 10 -26 10 -33 0 -22 35 18 58 32 17 51 15 63 -7 16 -30 12 -48
-12 -57 -18 -6 -11 -8 31 -11 61 -5 74 6 75 62 1 21 8 33 24 40 37 16 26 33
-21 33 -32 0 -46 -5 -55 -19 -7 -11 -8 -19 -2 -19 5 0 10 -19 10 -42 0 -42 -6
-48 -13 -12 -2 10 -7 27 -12 37 -4 10 -5 21 -2 24 4 3 0 15 -8 27 -8 11 -15
28 -15 37 0 25 -30 79 -44 79 -7 0 -28 -49 -49 -112z m71 10 c10 -38 10 -38
-19 -38 -33 0 -33 -1 -17 52 13 44 22 40 36 -14z"/>
<path d="M546 395 c4 -8 8 -15 10 -15 2 0 4 7 4 15 0 8 -4 15 -10 15 -5 0 -7
-7 -4 -15z"/>
<path d="M140 320 c-11 -11 -20 -24 -20 -29 0 -17 29 -39 60 -46 16 -4 32 -11
36 -16 8 -14 -26 -23 -39 -10 -13 13 -57 15 -57 2 0 -33 90 -54 122 -28 40 32
25 72 -33 87 -31 9 -39 14 -30 23 9 9 16 8 31 -1 27 -16 50 -15 50 3 0 36 -87
48 -120 15z"/>
<path d="M702 241 c3 -48 6 -56 23 -56 16 0 21 8 23 43 4 58 30 58 34 0 2 -31
8 -44 21 -46 13 -3 17 3 17 26 0 40 9 62 26 62 10 0 14 -13 14 -45 0 -39 3
-45 20 -45 19 0 21 5 18 58 l-3 57 -98 1 -98 2 3 -57z"/>
</g>
</svg>
